<?xml version="1.0" encoding="UTF-8" standalone="no"?>
<!DOCTYPE svg PUBLIC "-//W3C//DTD SVG 1.1//EN"
 "http://www.w3.org/Graphics/SVG/1.1/DTD/svg11.dtd">
<!-- Generated by graphviz version 14.1.3 (20260303.0454)
 -->
<!-- Title: Pipeline Pages: 1 -->
<svg width="634pt" height="305pt"
 viewBox="0.00 0.00 634.00 305.00" xmlns="http://www.w3.org/2000/svg" xmlns:xlink="http://www.w3.org/1999/xlink">
<g id="graph0" class="graph" transform="scale(1 1) rotate(0) translate(11.52 293.52)">
<title>Pipeline</title>
<polygon fill="white" stroke="none" points="-11.52,11.52 -11.52,-293.52 622.16,-293.52 622.16,11.52 -11.52,11.52"/>
<!-- target -->
<g id="node1" class="node">
<title>target</title>
<path fill="white" stroke="#333333" stroke-width="0.9" d="M181.98,-282C181.98,-282 42.38,-282 42.38,-282 36.38,-282 30.38,-276 30.38,-270 30.38,-270 30.38,-246 30.38,-246 30.38,-240 36.38,-234 42.38,-234 42.38,-234 181.98,-234 181.98,-234 187.98,-234 193.98,-240 193.98,-246 193.98,-246 193.98,-270 193.98,-270 193.98,-276 187.98,-282 181.98,-282"/>
<text xml:space="preserve" text-anchor="middle" x="112.18" y="-262.2" font-family="Arial" font-size="14.00" fill="#202020">Full CLR target</text>
<text xml:space="preserve" text-anchor="middle" x="112.18" y="-245.4" font-family="Arial" font-size="14.00" fill="#202020">17 coordinates; rank 16</text>
</g>
<!-- noise -->
<g id="node2" class="node">
<title>noise</title>
<path fill="white" stroke="#333333" stroke-width="0.9" d="M190.53,-204C190.53,-204 33.83,-204 33.83,-204 27.83,-204 21.83,-198 21.83,-192 21.83,-192 21.83,-168 21.83,-168 21.83,-162 27.83,-156 33.83,-156 33.83,-156 190.53,-156 190.53,-156 196.53,-156 202.53,-162 202.53,-168 202.53,-168 202.53,-192 202.53,-192 202.53,-198 196.53,-204 190.53,-204"/>
<text xml:space="preserve" text-anchor="middle" x="112.18" y="-184.2" font-family="Arial" font-size="14.00" fill="#202020">Forward noise</text>
<text xml:space="preserve" text-anchor="middle" x="112.18" y="-167.4" font-family="Arial" font-size="14.00" fill="#202020">Training / validation fixture</text>
</g>
<!-- target&#45;&gt;noise -->
<g id="edge1" class="edge">
<title>target&#45;&gt;noise</title>
<path fill="none" stroke="#454545" stroke-width="0.9" d="M112.18,-233.75C112.18,-233.75 112.18,-212.1 112.18,-212.1"/>
<polygon fill="#454545" stroke="#454545" stroke-width="0.9" points="114.46,-212.1 112.18,-205.6 109.91,-212.1 114.46,-212.1"/>
</g>
<!-- core -->
<g id="node6" class="node">
<title>core</title>
<path fill="#edf3f8" stroke="#496d8b" stroke-width="0.9" d="M298.44,-126C298.44,-126 119.92,-126 119.92,-126 113.92,-126 107.92,-120 107.92,-114 107.92,-114 107.92,-90 107.92,-90 107.92,-84 113.92,-78 119.92,-78 119.92,-78 298.44,-78 298.44,-78 304.44,-78 310.44,-84 310.44,-90 310.44,-90 310.44,-114 310.44,-114 310.44,-120 304.44,-126 298.44,-126"/>
<text xml:space="preserve" text-anchor="middle" x="209.18" y="-106.2" font-family="Arial" font-size="14.00" fill="#202020">CSDI epsilon predictor</text>
<text xml:space="preserve" text-anchor="middle" x="209.18" y="-89.4" font-family="Arial" font-size="14.00" fill="#202020">16 channels; 2 blocks; 1 head</text>
</g>
<!-- noise&#45;&gt;core -->
<g id="edge2" class="edge">
<title>noise&#45;&gt;core</title>
<path fill="none" stroke="#454545" stroke-width="0.9" d="M155.22,-155.75C155.22,-155.75 155.22,-134.1 155.22,-134.1"/>
<polygon fill="#454545" stroke="#454545" stroke-width="0.9" points="157.5,-134.1 155.22,-127.6 152.95,-134.1 157.5,-134.1"/>
</g>
<!-- query -->
<g id="node3" class="node">
<title>query</title>
<path fill="white" stroke="#333333" stroke-width="0.9" d="M367.58,-282C367.58,-282 236.78,-282 236.78,-282 230.78,-282 224.78,-276 224.78,-270 224.78,-270 224.78,-246 224.78,-246 224.78,-240 230.78,-234 236.78,-234 236.78,-234 367.58,-234 367.58,-234 373.58,-234 379.58,-240 379.58,-246 379.58,-246 379.58,-270 379.58,-270 379.58,-276 373.58,-282 367.58,-282"/>
<text xml:space="preserve" text-anchor="middle" x="302.18" y="-262.2" font-family="Arial" font-size="14.00" fill="#202020">Masked raw query</text>
<text xml:space="preserve" text-anchor="middle" x="302.18" y="-245.4" font-family="Arial" font-size="14.00" fill="#202020">Visible values + mask</text>
</g>
<!-- init -->
<g id="node4" class="node">
<title>init</title>
<path fill="white" stroke="#333333" stroke-width="0.9" d="M549.58,-282C549.58,-282 418.78,-282 418.78,-282 412.78,-282 406.78,-276 406.78,-270 406.78,-270 406.78,-246 406.78,-246 406.78,-240 412.78,-234 418.78,-234 418.78,-234 549.58,-234 549.58,-234 555.58,-234 561.58,-240 561.58,-246 561.58,-246 561.58,-270 561.58,-270 561.58,-276 555.58,-282 549.58,-282"/>
<text xml:space="preserve" text-anchor="middle" x="484.18" y="-262.2" font-family="Arial" font-size="14.00" fill="#202020">Stage A initializer</text>
<text xml:space="preserve" text-anchor="middle" x="484.18" y="-245.4" font-family="Arial" font-size="14.00" fill="#202020">Hron / Aitchison</text>
</g>
<!-- query&#45;&gt;init -->
<g id="edge3" class="edge">
<title>query&#45;&gt;init</title>
<path fill="none" stroke="#454545" stroke-width="0.9" d="M379.89,-258C379.89,-258 398.58,-258 398.58,-258"/>
<polygon fill="#454545" stroke="#454545" stroke-width="0.9" points="398.58,-260.28 405.08,-258 398.58,-255.73 398.58,-260.28"/>
</g>
<!-- cond -->
<g id="node5" class="node">
<title>cond</title>
<path fill="white" stroke="#333333" stroke-width="0.9" d="M372.58,-204C372.58,-204 241.78,-204 241.78,-204 235.78,-204 229.78,-198 229.78,-192 229.78,-192 229.78,-168 229.78,-168 229.78,-162 235.78,-156 241.78,-156 241.78,-156 372.58,-156 372.58,-156 378.58,-156 384.58,-162 384.58,-168 384.58,-168 384.58,-192 384.58,-192 384.58,-198 378.58,-204 372.58,-204"/>
<text xml:space="preserve" text-anchor="middle" x="307.18" y="-184.2" font-family="Arial" font-size="14.00" fill="#202020">Condition encoder</text>
<text xml:space="preserve" text-anchor="middle" x="307.18" y="-167.4" font-family="Arial" font-size="14.00" fill="#202020">85 &#45;&gt; 16 &#45;&gt; 16</text>
</g>
<!-- query&#45;&gt;cond -->
<g id="edge6" class="edge">
<title>query&#45;&gt;cond</title>
<path fill="none" stroke="#454545" stroke-width="0.9" d="M304.68,-233.75C304.68,-233.75 304.68,-212.1 304.68,-212.1"/>
<polygon fill="#454545" stroke="#454545" stroke-width="0.9" points="306.96,-212.1 304.68,-205.6 302.41,-212.1 306.96,-212.1"/>
</g>
<!-- init&#45;&gt;cond -->
<g id="edge4" class="edge">
<title>init&#45;&gt;cond</title>
<path fill="none" stroke="#454545" stroke-width="0.9" d="M415.88,-233.75C415.88,-210.85 415.88,-180 415.88,-180 415.88,-180 392.88,-180 392.88,-180"/>
<polygon fill="#454545" stroke="#454545" stroke-width="0.9" points="392.88,-177.73 386.38,-180 392.88,-182.28 392.88,-177.73"/>
</g>
<!-- cond&#45;&gt;core -->
<g id="edge5" class="edge">
<title>cond&#45;&gt;core</title>
<path fill="none" stroke="#454545" stroke-width="0.9" d="M270.11,-155.75C270.11,-155.75 270.11,-134.1 270.11,-134.1"/>
<polygon fill="#454545" stroke="#454545" stroke-width="0.9" points="272.39,-134.1 270.11,-127.6 267.84,-134.1 272.39,-134.1"/>
</g>
<!-- loss -->
<g id="node7" class="node">
<title>loss</title>
<path fill="white" stroke="#333333" stroke-width="0.9" d="M180.36,-48C180.36,-48 12,-48 12,-48 6,-48 0,-42 0,-36 0,-36 0,-12 0,-12 0,-6 6,0 12,0 12,0 180.36,0 180.36,0 186.36,0 192.36,-6 192.36,-12 192.36,-12 192.36,-36 192.36,-36 192.36,-42 186.36,-48 180.36,-48"/>
<text xml:space="preserve" text-anchor="middle" x="96.18" y="-28.2" font-family="Arial" font-size="14.00" fill="#202020">Training objective</text>
<text xml:space="preserve" text-anchor="middle" x="96.18" y="-11.4" font-family="Arial" font-size="14.00" fill="#202020">Full&#45;coordinate epsilon MSE</text>
</g>
<!-- core&#45;&gt;loss -->
<g id="edge7" class="edge">
<title>core&#45;&gt;loss</title>
<path fill="none" stroke="#454545" stroke-width="0.9" d="M150.14,-77.75C150.14,-77.75 150.14,-56.1 150.14,-56.1"/>
<polygon fill="#454545" stroke="#454545" stroke-width="0.9" points="152.42,-56.1 150.14,-49.6 147.87,-56.1 152.42,-56.1"/>
</g>
<!-- sample -->
<g id="node8" class="node">
<title>sample</title>
<path fill="white" stroke="#333333" stroke-width="0.9" d="M412.97,-48C412.97,-48 231.39,-48 231.39,-48 225.39,-48 219.39,-42 219.39,-36 219.39,-36 219.39,-12 219.39,-12 219.39,-6 225.39,0 231.39,0 231.39,0 412.97,0 412.97,0 418.97,0 424.97,-6 424.97,-12 424.97,-12 424.97,-36 424.97,-36 424.97,-42 418.97,-48 412.97,-48"/>
<text xml:space="preserve" text-anchor="middle" x="322.18" y="-28.2" font-family="Arial" font-size="14.00" fill="#202020">Reverse sampling</text>
<text xml:space="preserve" text-anchor="middle" x="322.18" y="-11.4" font-family="Arial" font-size="14.00" fill="#202020">Gaussian start; 20 steps; MC8</text>
</g>
<!-- core&#45;&gt;sample -->
<g id="edge8" class="edge">
<title>core&#45;&gt;sample</title>
<path fill="none" stroke="#454545" stroke-width="0.9" d="M264.92,-77.75C264.92,-77.75 264.92,-56.1 264.92,-56.1"/>
<polygon fill="#454545" stroke="#454545" stroke-width="0.9" points="267.19,-56.1 264.92,-49.6 262.64,-56.1 267.19,-56.1"/>
</g>
<!-- output -->
<g id="node9" class="node">
<title>output</title>
<path fill="white" stroke="#333333" stroke-width="0.9" d="M598.64,-48C598.64,-48 463.72,-48 463.72,-48 457.72,-48 451.72,-42 451.72,-36 451.72,-36 451.72,-12 451.72,-12 451.72,-6 457.72,0 463.72,0 463.72,0 598.64,0 598.64,0 604.64,0 610.64,-6 610.64,-12 610.64,-12 610.64,-36 610.64,-36 610.64,-42 604.64,-48 598.64,-48"/>
<text xml:space="preserve" text-anchor="middle" x="531.18" y="-28.2" font-family="Arial" font-size="14.00" fill="#202020">Inverse + restoration</text>
<text xml:space="preserve" text-anchor="middle" x="531.18" y="-11.4" font-family="Arial" font-size="14.00" fill="#202020">Exact observed counts</text>
</g>
<!-- sample&#45;&gt;output -->
<g id="edge9" class="edge">
<title>sample&#45;&gt;output</title>
<path fill="none" stroke="#454545" stroke-width="0.9" d="M425.15,-24C425.15,-24 443.66,-24 443.66,-24"/>
<polygon fill="#454545" stroke="#454545" stroke-width="0.9" points="443.66,-26.28 450.16,-24 443.66,-21.73 443.66,-26.28"/>
</g>
</g>
</svg>
