<?xml version="1.0" encoding="UTF-8" standalone="no"?>
<!DOCTYPE svg PUBLIC "-//W3C//DTD SVG 1.1//EN"
 "http://www.w3.org/Graphics/SVG/1.1/DTD/svg11.dtd">
<!-- Generated by graphviz version 14.1.3 (20260303.0454)
 -->
<!-- Title: Pipeline Pages: 1 -->
<svg width="954pt" height="227pt"
 viewBox="0.00 0.00 954.00 227.00" xmlns="http://www.w3.org/2000/svg" xmlns:xlink="http://www.w3.org/1999/xlink">
<g id="graph0" class="graph" transform="scale(1 1) rotate(0) translate(11.52 215.52)">
<title>Pipeline</title>
<polygon fill="white" stroke="none" points="-11.52,11.52 -11.52,-215.52 942.49,-215.52 942.49,11.52 -11.52,11.52"/>
<!-- train -->
<g id="node1" class="node">
<title>train</title>
<path fill="white" stroke="#333333" stroke-width="0.9" d="M142.8,-204C142.8,-204 12,-204 12,-204 6,-204 0,-198 0,-192 0,-192 0,-168 0,-168 0,-162 6,-156 12,-156 12,-156 142.8,-156 142.8,-156 148.8,-156 154.8,-162 154.8,-168 154.8,-168 154.8,-192 154.8,-192 154.8,-198 148.8,-204 142.8,-204"/>
<text xml:space="preserve" text-anchor="middle" x="77.4" y="-184.2" font-family="Arial" font-size="14.00" fill="#202020">Inner train</text>
<text xml:space="preserve" text-anchor="middle" x="77.4" y="-167.4" font-family="Arial" font-size="14.00" fill="#202020">285 labeled rows</text>
</g>
<!-- masks -->
<g id="node2" class="node">
<title>masks</title>
<path fill="white" stroke="#333333" stroke-width="0.9" d="M324.8,-204C324.8,-204 194,-204 194,-204 188,-204 182,-198 182,-192 182,-192 182,-168 182,-168 182,-162 188,-156 194,-156 194,-156 324.8,-156 324.8,-156 330.8,-156 336.8,-162 336.8,-168 336.8,-168 336.8,-192 336.8,-192 336.8,-198 330.8,-204 324.8,-204"/>
<text xml:space="preserve" text-anchor="middle" x="259.4" y="-184.2" font-family="Arial" font-size="14.00" fill="#202020">Training masks</text>
<text xml:space="preserve" text-anchor="middle" x="259.4" y="-167.4" font-family="Arial" font-size="14.00" fill="#202020">Control / mixed policy</text>
</g>
<!-- train&#45;&gt;masks -->
<g id="edge1" class="edge">
<title>train&#45;&gt;masks</title>
<path fill="none" stroke="#454545" stroke-width="0.9" d="M155.11,-180C155.11,-180 173.8,-180 173.8,-180"/>
<polygon fill="#454545" stroke="#454545" stroke-width="0.9" points="173.8,-182.28 180.3,-180 173.8,-177.73 173.8,-182.28"/>
</g>
<!-- model -->
<g id="node3" class="node">
<title>model</title>
<path fill="#edf3f8" stroke="#496d8b" stroke-width="0.9" d="M506.8,-204C506.8,-204 376,-204 376,-204 370,-204 364,-198 364,-192 364,-192 364,-168 364,-168 364,-162 370,-156 376,-156 376,-156 506.8,-156 506.8,-156 512.8,-156 518.8,-162 518.8,-168 518.8,-168 518.8,-192 518.8,-192 518.8,-198 512.8,-204 506.8,-204"/>
<text xml:space="preserve" text-anchor="middle" x="441.4" y="-184.2" font-family="Arial" font-size="14.00" fill="#202020">Train CSDI</text>
<text xml:space="preserve" text-anchor="middle" x="441.4" y="-167.4" font-family="Arial" font-size="14.00" fill="#202020">24 trajectories</text>
</g>
<!-- masks&#45;&gt;model -->
<g id="edge2" class="edge">
<title>masks&#45;&gt;model</title>
<path fill="none" stroke="#454545" stroke-width="0.9" d="M337.11,-180C337.11,-180 355.8,-180 355.8,-180"/>
<polygon fill="#454545" stroke="#454545" stroke-width="0.9" points="355.8,-182.28 362.3,-180 355.8,-177.73 355.8,-182.28"/>
</g>
<!-- select -->
<g id="node5" class="node">
<title>select</title>
<path fill="white" stroke="#333333" stroke-width="0.9" d="M506.8,-126C506.8,-126 376,-126 376,-126 370,-126 364,-120 364,-114 364,-114 364,-90 364,-90 364,-84 370,-78 376,-78 376,-78 506.8,-78 506.8,-78 512.8,-78 518.8,-84 518.8,-90 518.8,-90 518.8,-114 518.8,-114 518.8,-120 512.8,-126 506.8,-126"/>
<text xml:space="preserve" text-anchor="middle" x="441.4" y="-106.2" font-family="Arial" font-size="14.00" fill="#202020">Select checkpoints</text>
<text xml:space="preserve" text-anchor="middle" x="441.4" y="-89.4" font-family="Arial" font-size="14.00" fill="#202020">280 / 1,120 updates</text>
</g>
<!-- model&#45;&gt;select -->
<g id="edge3" class="edge">
<title>model&#45;&gt;select</title>
<path fill="none" stroke="#454545" stroke-width="0.9" d="M441.4,-155.75C441.4,-155.75 441.4,-134.1 441.4,-134.1"/>
<polygon fill="#454545" stroke="#454545" stroke-width="0.9" points="443.68,-134.1 441.4,-127.6 439.13,-134.1 443.68,-134.1"/>
</g>
<!-- fixture -->
<g id="node4" class="node">
<title>fixture</title>
<path fill="white" stroke="#333333" stroke-width="0.9" d="M324.8,-126C324.8,-126 194,-126 194,-126 188,-126 182,-120 182,-114 182,-114 182,-90 182,-90 182,-84 188,-78 194,-78 194,-78 324.8,-78 324.8,-78 330.8,-78 336.8,-84 336.8,-90 336.8,-90 336.8,-114 336.8,-114 336.8,-120 330.8,-126 324.8,-126"/>
<text xml:space="preserve" text-anchor="middle" x="259.4" y="-106.2" font-family="Arial" font-size="14.00" fill="#202020">Denmark fixture</text>
<text xml:space="preserve" text-anchor="middle" x="259.4" y="-89.4" font-family="Arial" font-size="14.00" fill="#202020">103 rows; fixed noise</text>
</g>
<!-- fixture&#45;&gt;select -->
<g id="edge4" class="edge">
<title>fixture&#45;&gt;select</title>
<path fill="none" stroke="#454545" stroke-width="0.9" stroke-dasharray="5,2" d="M337.11,-102C337.11,-102 355.8,-102 355.8,-102"/>
<polygon fill="#454545" stroke="#454545" stroke-width="0.9" points="355.8,-104.28 362.3,-102 355.8,-99.73 355.8,-104.28"/>
</g>
<!-- score -->
<g id="node6" class="node">
<title>score</title>
<path fill="white" stroke="#333333" stroke-width="0.9" d="M692.66,-126C692.66,-126 558.14,-126 558.14,-126 552.14,-126 546.14,-120 546.14,-114 546.14,-114 546.14,-90 546.14,-90 546.14,-84 552.14,-78 558.14,-78 558.14,-78 692.66,-78 692.66,-78 698.66,-78 704.66,-84 704.66,-90 704.66,-90 704.66,-114 704.66,-114 704.66,-120 698.66,-126 692.66,-126"/>
<text xml:space="preserve" text-anchor="middle" x="625.4" y="-106.2" font-family="Arial" font-size="14.00" fill="#202020">Validation scoring</text>
<text xml:space="preserve" text-anchor="middle" x="625.4" y="-89.4" font-family="Arial" font-size="14.00" fill="#202020">MC8 + shared controls</text>
</g>
<!-- select&#45;&gt;score -->
<g id="edge5" class="edge">
<title>select&#45;&gt;score</title>
<path fill="none" stroke="#454545" stroke-width="0.9" d="M519.17,-102C519.17,-102 537.99,-102 537.99,-102"/>
<polygon fill="#454545" stroke="#454545" stroke-width="0.9" points="537.99,-104.28 544.49,-102 537.99,-99.73 537.99,-104.28"/>
</g>
<!-- gates -->
<g id="node7" class="node">
<title>gates</title>
<path fill="white" stroke="#333333" stroke-width="0.9" d="M726.7,-48C726.7,-48 524.1,-48 524.1,-48 518.1,-48 512.1,-42 512.1,-36 512.1,-36 512.1,-12 512.1,-12 512.1,-6 518.1,0 524.1,0 524.1,0 726.7,0 726.7,0 732.7,0 738.7,-6 738.7,-12 738.7,-12 738.7,-36 738.7,-36 738.7,-42 732.7,-48 726.7,-48"/>
<text xml:space="preserve" text-anchor="middle" x="625.4" y="-28.2" font-family="Arial" font-size="14.00" fill="#202020">Validation gates</text>
<text xml:space="preserve" text-anchor="middle" x="625.4" y="-11.4" font-family="Arial" font-size="14.00" fill="#202020">Conditioning / efficacy / numerical</text>
</g>
<!-- score&#45;&gt;gates -->
<g id="edge6" class="edge">
<title>score&#45;&gt;gates</title>
<path fill="none" stroke="#454545" stroke-width="0.9" d="M625.4,-77.75C625.4,-77.75 625.4,-56.1 625.4,-56.1"/>
<polygon fill="#454545" stroke="#454545" stroke-width="0.9" points="627.68,-56.1 625.4,-49.6 623.13,-56.1 627.68,-56.1"/>
</g>
<!-- result -->
<g id="node8" class="node">
<title>result</title>
<path fill="white" stroke="#333333" stroke-width="0.9" d="M918.97,-48C918.97,-48 777.83,-48 777.83,-48 771.83,-48 765.83,-42 765.83,-36 765.83,-36 765.83,-12 765.83,-12 765.83,-6 771.83,0 777.83,0 777.83,0 918.97,0 918.97,0 924.97,0 930.97,-6 930.97,-12 930.97,-12 930.97,-36 930.97,-36 930.97,-42 924.97,-48 918.97,-48"/>
<text xml:space="preserve" text-anchor="middle" x="848.4" y="-28.2" font-family="Arial" font-size="14.00" fill="#202020">E5 blocked</text>
<text xml:space="preserve" text-anchor="middle" x="848.4" y="-11.4" font-family="Arial" font-size="14.00" fill="#202020">Canada remains sealed</text>
</g>
<!-- gates&#45;&gt;result -->
<g id="edge7" class="edge">
<title>gates&#45;&gt;result</title>
<path fill="none" stroke="#454545" stroke-width="0.9" d="M738.86,-24C738.86,-24 757.82,-24 757.82,-24"/>
<polygon fill="#454545" stroke="#454545" stroke-width="0.9" points="757.82,-26.28 764.32,-24 757.82,-21.73 757.82,-26.28"/>
</g>
</g>
</svg>
